<?xml version="1.0" encoding="utf-8"?>
<!-- Generator: Adobe Illustrator 15.0.0, SVG Export Plug-In  -->
<!DOCTYPE svg PUBLIC "-//W3C//DTD SVG 1.1//EN" "http://www.w3.org/Graphics/SVG/1.1/DTD/svg11.dtd" [
	<!ENTITY ns_flows "http://ns.adobe.com/Flows/1.0/">
]>
<svg version="1.1"
	 xmlns="http://www.w3.org/2000/svg" xmlns:xlink="http://www.w3.org/1999/xlink" xmlns:a="http://ns.adobe.com/AdobeSVGViewerExtensions/3.0/"
	 x="0px" y="0px" width="376px" height="147px" viewBox="-3.273 -3 376 147" enable-background="new -3.273 -3 376 147"
	 xml:space="preserve">
<defs>
</defs>
<polygon fill="#B2D9F6" points="65.502,120.048 97.691,143.92 97.691,96.265 "/>
<polygon fill="#B2D9F6" points="33.322,96.418 33.322,144.048 65.503,120.048 33.419,96.341 "/>
<polygon fill="#B2D9F6" points="97.929,0.916 97.692,1.089 65.575,24.815 65.502,24.871 65.502,24.765 33.322,0.983 33.322,0.937 
	33.287,0.958 0.917,24.54 65.502,72.63 130.307,24.752 "/>
<polygon fill="#C7E2F9" points="65.502,72.631 65.756,72.445 65.502,72.262 "/>
<polygon fill="#C7E2F9" points="33.322,96.418 33.418,96.341 33.322,96.265 "/>
<polygon fill="#C7E2F9" points="33.322,48.656 33.436,48.565 33.322,48.479 "/>
<polygon fill="#C7E2F9" points="0.917,24.876 1.146,24.709 0.917,24.54 "/>
<polygon fill="#C7E2F9" points="0.917,72.593 1.096,72.461 0.917,72.328 "/>
<polygon fill="#DBECFC" points="33.436,48.566 33.322,48.655 33.322,48.481 1.145,24.709 0.917,24.877 0.917,120.108 1.087,120.231 
	33.322,144.048 33.322,143.831 33.322,96.418 33.322,96.265 33.418,96.341 65.502,120.048 65.502,72.631 "/>
<polygon fill="#C7E2F9" points="130.249,24.795 130.307,24.841 130.307,24.753 "/>
<polygon fill="#C7E2F9" points="97.692,48.848 97.896,48.698 97.692,48.547 "/>
<polygon fill="#C7E2F9" points="97.692,96.265 97.841,96.157 97.692,96.049 "/>
<polygon fill="#C8E3F9" points="130.25,24.795 97.896,48.698 97.691,48.848 65.756,72.444 65.502,72.631 65.502,120.048 
	97.691,96.265 97.691,96.049 97.841,96.157 97.691,96.265 97.691,143.831 97.691,143.92 130.308,119.823 130.308,24.841 "/>
<polygon fill="#C7E2F9" points="65.502,24.87 65.576,24.816 65.502,24.766 "/>
<g>
	<path fill="#83BEEB" d="M96.352,48.698L65.576,25.956L34.97,48.571l-2.084,0.728c-0.231-0.175-0.368-0.448-0.367-0.737
		c0.002-0.29,0.141-0.562,0.373-0.733l32.067-23.696c0.324-0.239,0.839-0.293,1.162-0.054l32.115,23.732
		c0.233,0.173,0.372,0.447,0.372,0.737v0.3c0,0.291-0.139,0.564-0.372,0.737L96.352,48.698z"/>
	<path fill="#9DCFF3" d="M33.867,47.743c0.233,0.173,0.371,0.446,0.371,0.737v47.785c0,0.346-0.194,0.663-0.503,0.818
		c-0.131,0.065-0.272,0.1-0.413,0.1c-0.191,0-0.384-0.062-0.544-0.18L0.372,73.062C0.138,72.889,0,72.615,0,72.327l1.834-0.461
		l30.57,22.583V48.942L33.867,47.743z"/>
	<path fill="#9DCFF3" d="M131.223,72.171c0,0.291-0.138,0.563-0.371,0.737L98.386,96.896c-0.162,0.12-0.353,0.18-0.545,0.18
		c-0.189,0-0.379-0.059-0.539-0.177l-0.151-0.109c-0.235-0.172-0.376-0.448-0.376-0.74V48.848c0-0.291,0.139-0.567,0.374-0.739
		l0.205-0.15l1.254,1.353v45.14l30.785-22.744L131.223,72.171z"/>
	<path fill="#68A2D9" d="M98.608,142.104L98.608,142.104v-45.84c0-0.345-0.196-0.662-0.504-0.817c-0.131-0.066-0.272-0.1-0.412-0.1
		c-0.019,0-0.035,0.009-0.053,0.01c-0.022,0.001-0.042,0.005-0.063,0.01c-0.152,0.019-0.301,0.066-0.429,0.159l-30.729,22.705
		V73.095l62.975-46.527v92.792L98.608,142.104z M34.238,142.22L34.238,142.22V98.087l29.726,21.965L34.238,142.22z M1.834,26.357
		L1.834,26.357l62.752,46.732v45.143L33.889,95.545c-0.273-0.216-0.651-0.258-0.967-0.104c-0.315,0.152-0.517,0.473-0.517,0.824
		v0.153v45.811L1.834,119.643V26.357z M96.775,142.099L96.775,142.099L67.044,120.05l29.731-21.969V142.099z M33.285,2.096
		L33.285,2.096l31.764,23.47c0.322,0.226,0.753,0.222,1.071-0.014L97.929,2.054l30.833,22.698L65.508,71.488L33.986,47.832
		l-0.001-0.001l-0.116-0.084c-0.001-0.002-0.002-0.003-0.002-0.003l-5.245-3.875L2.467,24.545L33.285,2.096z M131.223,24.752
		L131.223,24.752c0-0.117-0.032-0.222-0.077-0.323c-0.061-0.161-0.152-0.31-0.295-0.415L98.471,0.177
		c-0.324-0.237-0.764-0.236-1.086,0.002L65.574,23.677L34.01,0.353c-0.081-0.09-0.179-0.166-0.29-0.222
		c-0.309-0.158-0.694-0.116-0.974,0.087L0.377,23.799c-0.065,0.048-0.104,0.12-0.155,0.182c-0.03,0.04-0.069,0.067-0.093,0.109
		C0.051,24.227,0,24.377,0,24.537v0.002v95.57c0,0.294,0.142,0.569,0.382,0.743l32.396,23.932c0.031,0.023,0.068,0.034,0.101,0.052
		c0.013,0.008,0.018,0.024,0.032,0.03c0.014,0.007,0.03,0.005,0.045,0.01c0.118,0.053,0.239,0.088,0.366,0.088
		c0.128,0,0.251-0.035,0.368-0.088c0.013-0.008,0.03-0.004,0.045-0.012c0.013-0.006,0.017-0.021,0.031-0.029
		c0.034-0.018,0.072-0.028,0.103-0.054l31.637-23.591l31.64,23.466c0.031,0.022,0.066,0.034,0.1,0.05
		c0.014,0.01,0.018,0.025,0.032,0.03c0.014,0.009,0.031,0.005,0.047,0.012c0.117,0.053,0.238,0.088,0.367,0.088
		c0.126,0,0.247-0.035,0.363-0.086c0.016-0.008,0.033-0.003,0.049-0.01c0.014-0.008,0.017-0.024,0.032-0.034
		c0.031-0.016,0.069-0.025,0.1-0.05l32.616-24.095c0.233-0.173,0.371-0.446,0.371-0.738V24.752z"/>
	<polygon fill="#5C83B6" points="181.036,47.207 181.036,30.614 174.175,47.207 173.146,47.207 166.316,30.614 166.316,47.207 
		163.807,47.207 163.807,27.048 167.404,27.048 173.661,42.22 179.947,27.048 183.544,27.048 183.544,47.207 	"/>
	<path fill="#5C83B6" d="M187.261,37.143c0-5.954,4.021-10.428,10.006-10.428c5.953,0,10.004,4.474,10.004,10.428
		c0,5.953-4.051,10.427-10.004,10.427C191.282,47.57,187.261,43.096,187.261,37.143 M204.669,37.143
		c0-4.716-2.899-8.191-7.402-8.191c-4.536,0-7.406,3.475-7.406,8.191c0,4.685,2.87,8.19,7.406,8.19
		C201.77,45.333,204.669,41.828,204.669,37.143"/>
	<path fill="#5C83B6" d="M210.341,37.143c0-6.197,4.564-10.428,10.368-10.428c3.566,0,6.047,1.723,7.646,3.99l-2.113,1.179
		c-1.151-1.694-3.234-2.932-5.533-2.932c-4.412,0-7.767,3.385-7.767,8.191c0,4.775,3.354,8.19,7.767,8.19
		c2.299,0,4.382-1.209,5.533-2.932l2.146,1.179c-1.693,2.297-4.112,3.99-7.679,3.99C214.906,47.57,210.341,43.338,210.341,37.143"/>
	<polygon fill="#5C83B6" points="243.67,47.207 236.02,38.14 233.999,40.437 233.999,47.207 231.489,47.207 231.489,27.048 
		233.999,27.048 233.999,37.476 242.913,27.048 246.056,27.048 237.652,36.628 246.781,47.207 	"/>
	<path fill="#5C83B6" d="M247.043,37.143c0-5.954,4.021-10.428,10.007-10.428c5.952,0,10.003,4.474,10.003,10.428
		c0,5.953-4.051,10.427-10.003,10.427C251.065,47.57,247.043,43.096,247.043,37.143 M264.453,37.143c0-4.716-2.9-8.191-7.402-8.191
		c-4.536,0-7.406,3.475-7.406,8.191c0,4.685,2.87,8.19,7.406,8.19C261.552,45.333,264.453,41.828,264.453,37.143"/>
	<path fill="#5C83B6" d="M270.725,47.207V27.048h8.979c3.504,0,5.65,2.115,5.65,5.138c0,2.539-1.694,4.231-3.537,4.624
		c2.145,0.333,3.931,2.539,3.931,4.956c0,3.234-2.146,5.441-5.832,5.441H270.725z M282.757,32.548c0-1.813-1.209-3.263-3.479-3.263
		h-6.044v6.497h6.044C281.548,35.782,282.757,34.391,282.757,32.548 M283.147,41.495c0-1.844-1.269-3.476-3.744-3.476h-6.168v6.952
		h6.168C281.759,44.971,283.147,43.641,283.147,41.495"/>
	<path fill="#5C83B6" d="M288.589,37.143c0-6.197,4.564-10.428,10.368-10.428c3.566,0,6.043,1.723,7.646,3.99l-2.118,1.179
		c-1.146-1.694-3.233-2.932-5.528-2.932c-4.415,0-7.771,3.385-7.771,8.191c0,4.775,3.355,8.19,7.771,8.19
		c2.295,0,4.382-1.209,5.528-2.932l2.146,1.179c-1.693,2.297-4.108,3.99-7.675,3.99C293.154,47.57,288.589,43.338,288.589,37.143"/>
	<polygon fill="#5C83B6" points="321.915,47.207 314.268,38.14 312.243,40.437 312.243,47.207 309.733,47.207 309.733,27.048 
		312.243,27.048 312.243,37.476 321.161,27.048 324.3,27.048 315.9,36.628 325.029,47.207 	"/>
	<polygon fill="#5C83B6" points="327.961,47.207 327.961,27.048 330.471,27.048 330.471,42.795 342.078,27.048 344.646,27.048 
		344.646,47.207 342.139,47.207 342.139,31.128 330.38,47.207 	"/>
	<path fill="#5C83B6" d="M349.301,47.208v-20.16h2.51v15.748l11.606-15.748h2.568v20.16h-2.507V31.128L351.72,47.208H349.301z
		 M357.643,25.899c-2.146,0-4.08-1.028-5.318-2.66l1.118-0.967c0.97,1.33,2.419,2.176,4.2,2.176c1.756,0,3.235-0.816,4.171-2.176
		l1.119,0.967C361.723,24.872,359.822,25.899,357.643,25.899"/>
	<path fill="#5C83B6" d="M162.991,73.418c0-5.954,4.02-10.427,10.005-10.427c5.955,0,10.003,4.473,10.003,10.427
		s-4.049,10.428-10.003,10.428C167.011,83.846,162.991,79.372,162.991,73.418 M180.4,73.418c0-4.715-2.901-8.19-7.404-8.19
		c-4.534,0-7.406,3.475-7.406,8.19c0,4.685,2.872,8.191,7.406,8.191C177.499,81.609,180.4,78.103,180.4,73.418"/>
	<polygon fill="#5C83B6" points="198.856,83.481 191.207,74.415 189.183,76.713 189.183,83.481 186.673,83.481 186.673,63.323 
		189.183,63.323 189.183,73.753 198.098,63.323 201.242,63.323 192.837,72.902 201.967,83.481 	"/>
	<path fill="#5C83B6" d="M202.229,73.418c0-5.954,4.021-10.427,10.007-10.427c5.952,0,10.003,4.473,10.003,10.427
		s-4.051,10.428-10.003,10.428C206.25,83.846,202.229,79.372,202.229,73.418 M219.638,73.418c0-4.715-2.899-8.19-7.402-8.19
		c-4.536,0-7.406,3.475-7.406,8.19c0,4.685,2.87,8.191,7.406,8.191C216.739,81.609,219.638,78.103,219.638,73.418"/>
	<polygon fill="#5C83B6" points="240.206,83.481 240.206,74.234 228.421,74.234 228.421,83.481 225.912,83.481 225.912,63.323 
		228.421,63.323 228.421,71.998 240.206,71.998 240.206,63.323 242.715,63.323 242.715,83.481 	"/>
	<polygon fill="#5C83B6" points="261.666,83.481 261.666,74.234 249.881,74.234 249.881,83.481 247.371,83.481 247.371,63.323 
		249.881,63.323 249.881,71.998 261.666,71.998 261.666,63.323 264.175,63.323 264.175,83.481 	"/>
	<path fill="#5C83B6" d="M271.341,63.323v8.01h5.588c3.992,0,6.32,2.779,6.32,6.074s-2.27,6.074-6.32,6.074h-8.098V63.323H271.341z
		 M271.341,73.569v7.676h5.285c2.39,0,4.021-1.57,4.021-3.838s-1.632-3.838-4.021-3.838H271.341z M285.424,63.323h2.51v20.158h-2.51
		V63.323z"/>
	<path fill="#5C83B6" d="M292.604,83.481V63.323h2.51v15.749l11.605-15.749h2.569v20.159h-2.51V67.404l-11.756,16.078H292.604z
		 M300.947,62.175c-2.146,0-4.08-1.028-5.319-2.66l1.118-0.967c0.966,1.33,2.416,2.176,4.201,2.176c1.752,0,3.234-0.816,4.171-2.176
		l1.118,0.967C305.026,61.147,303.121,62.175,300.947,62.175"/>
	<path fill="#5C83B6" d="M162.991,109.695c0-6.196,4.564-10.43,10.368-10.43c3.567,0,6.045,1.724,7.647,3.991l-2.116,1.179
		c-1.149-1.694-3.234-2.933-5.531-2.933c-4.414,0-7.768,3.386-7.768,8.192c0,4.774,3.354,8.189,7.768,8.189
		c2.297,0,4.382-1.211,5.531-2.933l2.146,1.18c-1.693,2.297-4.11,3.989-7.677,3.989C167.555,120.121,162.991,115.89,162.991,109.695
		"/>
	<polygon fill="#5C83B6" points="184.136,119.759 184.136,99.6 197.344,99.6 197.344,101.836 186.646,101.836 186.646,108.333 
		197.132,108.333 197.132,110.569 186.646,110.569 186.646,117.522 197.344,117.522 197.344,119.759 	"/>
	<path fill="#5C83B6" d="M201.078,119.759V99.6h8.099c4.051,0,6.32,2.781,6.32,6.074c0,3.295-2.328,6.076-6.32,6.076h-5.589v8.009
		H201.078z M212.895,105.674c0-2.266-1.632-3.838-4.021-3.838h-5.287v7.678h5.287C211.263,109.514,212.895,107.941,212.895,105.674"
		/>
	<path fill="#5C83B6" d="M218.64,119.759V99.6h8.976c3.509,0,5.654,2.114,5.654,5.138c0,2.539-1.694,4.231-3.537,4.623
		c2.146,0.335,3.927,2.539,3.927,4.958c0,3.234-2.146,5.44-5.832,5.44H218.64z M230.668,105.1c0-1.812-1.209-3.264-3.475-3.264
		h-6.044v6.497h6.044C229.459,108.333,230.668,106.945,230.668,105.1 M231.062,114.047c0-1.845-1.271-3.478-3.748-3.478h-6.164
		v6.953h6.164C229.67,117.522,231.062,116.193,231.062,114.047"/>
	<polygon fill="#5C83B6" points="237.568,119.759 237.568,99.6 240.079,99.6 240.079,115.346 251.684,99.6 254.252,99.6 
		254.252,119.759 251.743,119.759 251.743,103.68 239.987,119.759 	"/>
	<path fill="#5C83B6" d="M257.892,109.695c0-6.196,4.563-10.43,10.367-10.43c3.566,0,6.047,1.724,7.646,3.991l-2.113,1.179
		c-1.151-1.694-3.234-2.933-5.533-2.933c-4.412,0-7.767,3.386-7.767,8.192c0,4.774,3.354,8.189,7.767,8.189
		c2.299,0,4.382-1.211,5.533-2.933l2.146,1.18c-1.693,2.297-4.112,3.989-7.679,3.989
		C262.456,120.121,257.892,115.89,257.892,109.695"/>
</g>
</svg>
