<?xml version="1.0" encoding="utf-8"?>
<!-- Generator: Adobe Illustrator 15.0.0, SVG Export Plug-In  -->
<!DOCTYPE svg PUBLIC "-//W3C//DTD SVG 1.1//EN" "http://www.w3.org/Graphics/SVG/1.1/DTD/svg11.dtd" [
	<!ENTITY ns_flows "http://ns.adobe.com/Flows/1.0/">
]>
<svg version="1.1"
	 xmlns="http://www.w3.org/2000/svg" xmlns:xlink="http://www.w3.org/1999/xlink" xmlns:a="http://ns.adobe.com/AdobeSVGViewerExtensions/3.0/"
	 x="0px" y="0px" width="282px" height="113px" viewBox="-4.008 -1.909 282 113" enable-background="new -4.008 -1.909 282 113"
	 xml:space="preserve">
<defs>
</defs>
<rect x="14.121" y="15.735" fill="#FFFFFF" width="30.558" height="50.801"/>
<path fill="none" stroke="#FFFFFF" stroke-width="10" d="M47.983,56.068c0,2.796-0.494,5.269-1.483,7.418
	c-0.989,2.148-2.353,3.973-4.093,5.474c-1.739,1.501-3.785,2.644-6.139,3.428s-4.929,1.177-7.726,1.177s-5.371-0.375-7.725-1.125
	s-4.417-1.859-6.19-3.326s-3.155-3.291-4.144-5.474C9.494,61.457,9,58.932,9,56.068V26.395c0-2.729,0.512-5.167,1.535-7.316
	c1.022-2.149,2.404-3.974,4.144-5.475c1.74-1.5,3.786-2.643,6.14-3.428C23.172,9.392,25.713,9,28.441,9
	c2.66,0,5.167,0.375,7.52,1.125c2.354,0.751,4.435,1.859,6.242,3.326c1.807,1.466,3.223,3.292,4.246,5.474
	c1.022,2.183,1.534,4.673,1.534,7.47V56.068L47.983,56.068z M39.39,26.599c0-2.933-0.989-5.354-2.968-7.265
	c-1.978-1.91-4.604-2.865-7.879-2.865c-3.342,0-6.002,0.972-7.98,2.916c-1.979,1.944-2.968,4.349-2.968,7.213v29.264
	c0,3.069,0.938,5.543,2.814,7.418c1.875,1.875,4.553,2.814,8.032,2.814c3.41,0,6.088-0.939,8.031-2.814
	c1.944-1.875,2.917-4.349,2.917-7.418V26.599z"/>
<path id="_x31__1_" fill="#4C799D" d="M47.983,56.068c0,2.796-0.494,5.269-1.483,7.418c-0.989,2.148-2.353,3.973-4.093,5.474
	c-1.739,1.501-3.785,2.644-6.139,3.428s-4.929,1.177-7.726,1.177s-5.371-0.375-7.725-1.125s-4.417-1.859-6.19-3.326
	s-3.155-3.291-4.144-5.474C9.494,61.457,9,58.932,9,56.068V26.395c0-2.729,0.512-5.167,1.535-7.316
	c1.022-2.149,2.404-3.974,4.144-5.475c1.74-1.5,3.786-2.643,6.14-3.428C23.172,9.392,25.713,9,28.441,9
	c2.66,0,5.167,0.375,7.52,1.125c2.354,0.751,4.435,1.859,6.242,3.326c1.807,1.466,3.223,3.292,4.246,5.474
	c1.022,2.183,1.534,4.673,1.534,7.47V56.068L47.983,56.068z M39.39,26.599c0-2.933-0.989-5.354-2.968-7.265
	c-1.978-1.91-4.604-2.865-7.879-2.865c-3.342,0-6.002,0.972-7.98,2.916c-1.979,1.944-2.968,4.349-2.968,7.213v29.264
	c0,3.069,0.938,5.543,2.814,7.418c1.875,1.875,4.553,2.814,8.032,2.814c3.41,0,6.088-0.939,8.031-2.814
	c1.944-1.875,2.917-4.349,2.917-7.418V26.599z"/>
<path fill="#4C799D" d="M84.993,71.789c0,0.896-0.369,1.343-1.106,1.343h-4.185c-0.737,0-1.106-0.369-1.106-1.106l-0.395-7.344
	c-0.053-1.002-0.198-1.962-0.435-2.883c-0.237-0.922-0.632-1.738-1.185-2.449c-0.553-0.71-1.304-1.264-2.251-1.658
	s-2.133-0.592-3.554-0.592c-2.476,0-4.357,0.736-5.647,2.211s-1.935,3.238-1.935,5.291v7.74c0,0.527-0.264,0.79-0.79,0.79h-4.818
	c-0.526,0-0.789-0.237-0.789-0.71v-33.25c0-0.526,0.237-0.79,0.711-0.79h4.896c0.474,0,0.711,0.237,0.711,0.71v12.399
	c0,0.58,0.131,0.921,0.395,1.027c0.263,0.105,0.526,0.026,0.79-0.237l12.242-13.348c0.263-0.263,0.631-0.395,1.105-0.395h5.844
	c0.579,0,0.869,0.237,0.869,0.711c0,0.105-0.04,0.224-0.118,0.355c-0.079,0.131-0.172,0.25-0.277,0.355L73.541,51.175
	c-0.315,0.369-0.211,0.632,0.315,0.79c0.527,0.053,1.015,0.105,1.462,0.158c0.447,0.053,0.882,0.131,1.303,0.237
	c1.475,0.368,2.712,0.934,3.712,1.698s1.804,1.686,2.409,2.764c0.605,1.08,1.053,2.278,1.343,3.594
	c0.289,1.316,0.486,2.713,0.592,4.186L84.993,71.789L84.993,71.789z M118.716,60.257c0,4.266-1.25,7.557-3.751,9.873
	s-5.884,3.475-10.148,3.475c-4.37,0-7.779-1.146-10.228-3.436c-2.448-2.289-3.673-5.568-3.673-9.832v-9.083
	c0-4.055,1.185-7.279,3.555-9.674c2.369-2.396,5.791-3.594,10.267-3.594s7.924,1.159,10.346,3.476
	c2.422,2.316,3.633,5.581,3.633,9.793V60.257L118.716,60.257z M112.397,51.202c0-2.277-0.618-4.133-1.855-5.581
	c-1.237-1.461-3.146-2.185-5.726-2.185c-2.317,0-4.159,0.711-5.528,2.146c-1.369,1.422-2.054,3.291-2.054,5.621v9.109
	c0,2.276,0.579,4.146,1.737,5.62c1.159,1.488,3.08,2.225,5.766,2.225c2.685,0,4.62-0.725,5.805-2.186
	c1.185-1.447,1.804-3.33,1.855-5.659V51.202z M153.467,72.183c0,0.422-0.119,0.686-0.355,0.79c-0.225,0.105-0.5,0.158-0.816,0.158
	h-3.975c-0.776,0-1.172-0.29-1.172-0.868V58.284c0-0.421-0.185-0.632-0.553-0.632h-12.874c-0.368,0-0.552,0.211-0.552,0.632v13.899
	c0,0.422-0.106,0.686-0.316,0.79c-0.211,0.105-0.461,0.158-0.777,0.158h-4.054c-0.776,0-1.172-0.29-1.172-0.868V39.487
	c0-0.263,0.066-0.487,0.198-0.671c0.131-0.185,0.395-0.276,0.815-0.276h4.291c0.422,0,0.685,0.066,0.816,0.197
	c0.132,0.132,0.198,0.355,0.198,0.671v12.794c0,0.105,0.052,0.237,0.157,0.395c0.105,0.158,0.237,0.237,0.395,0.237h12.874
	c0.368,0,0.553-0.21,0.553-0.632V39.487c0-0.632,0.368-0.948,1.093-0.948h3.975c0.829,0,1.251,0.29,1.251,0.869V72.183
	L153.467,72.183z M188.849,72.183c0,0.422-0.118,0.686-0.354,0.79c-0.225,0.105-0.501,0.158-0.816,0.158h-3.976
	c-0.776,0-1.172-0.29-1.172-0.868V58.284c0-0.421-0.185-0.632-0.553-0.632h-12.873c-0.368,0-0.553,0.211-0.553,0.632v13.899
	c0,0.422-0.105,0.686-0.316,0.79c-0.211,0.105-0.46,0.158-0.776,0.158h-4.054c-0.777,0-1.172-0.29-1.172-0.868V39.487
	c0-0.263,0.065-0.487,0.197-0.671s0.395-0.276,0.816-0.276h4.291c0.421,0,0.685,0.066,0.816,0.197
	c0.131,0.132,0.197,0.355,0.197,0.671v12.794c0,0.105,0.053,0.237,0.157,0.395c0.106,0.158,0.237,0.237,0.396,0.237h12.873
	c0.368,0,0.553-0.21,0.553-0.632V39.487c0-0.632,0.369-0.948,1.093-0.948h3.976c0.829,0,1.25,0.29,1.25,0.869V72.183z
	 M197.694,39.487c0-0.316,0.118-0.553,0.355-0.711c0.236-0.158,0.513-0.237,0.829-0.237h3.949c0.842,0,1.264,0.316,1.264,0.948
	v10.978c0,0.315,0.184,0.474,0.553,0.474h8.924c1.844,0,3.488,0.29,4.937,0.869c1.448,0.579,2.685,1.369,3.712,2.37
	c1.026,1,1.804,2.172,2.33,3.514c0.526,1.343,0.79,2.752,0.79,4.226s-0.264,2.896-0.79,4.265s-1.29,2.566-2.291,3.594
	c-1,1.026-2.237,1.842-3.712,2.448c-1.474,0.605-3.159,0.908-5.055,0.908H198.8c-0.789,0-1.185-0.369-1.185-1.106L197.694,39.487
	L197.694,39.487z M234.972,72.025c0,0.737-0.395,1.106-1.198,1.106h-3.922c-0.803,0-1.198-0.343-1.198-1.026v-32.46
	c0-0.685,0.396-1.027,1.198-1.027h3.922c0.804,0,1.198,0.315,1.198,0.948V72.025z M213.489,67.681c0.948,0,1.791-0.17,2.528-0.513
	c0.736-0.343,1.355-0.776,1.855-1.329s0.869-1.158,1.105-1.844c0.237-0.684,0.356-1.355,0.356-2.039c0-1.83-0.514-3.238-1.541-4.238
	c-1.026-0.988-2.461-1.488-4.305-1.488h-8.608c-0.157,0-0.328,0.039-0.513,0.119c-0.185,0.078-0.276,0.25-0.276,0.513v10.347
	c0,0.263,0.079,0.407,0.236,0.434c0.158,0.027,0.316,0.039,0.475,0.039H213.489z M243.58,39.329c0-0.526,0.343-0.79,1.027-0.79
	h4.265c0.422,0,0.672,0.079,0.751,0.237c0.078,0.158,0.118,0.369,0.118,0.632v22.588c0,0.631,0.158,0.737,0.474,0.316l4.265-7.029
	l9.715-15.559c0.263-0.421,0.513-0.724,0.75-0.909s0.645-0.276,1.225-0.276h3.554c0.421,0,0.697,0.079,0.829,0.237
	s0.197,0.369,0.197,0.632v32.855c0,0.578-0.289,0.868-0.869,0.868h-4.502c-0.368,0-0.618-0.053-0.75-0.158
	c-0.131-0.104-0.197-0.368-0.197-0.79V49.359c0-0.263-0.039-0.381-0.118-0.355c-0.079,0.027-0.171,0.092-0.276,0.198l-4.028,6.712
	l-10.108,16.27c-0.316,0.579-0.58,0.882-0.79,0.908c-0.211,0.027-0.448,0.04-0.711,0.04h-3.791c-0.422,0-0.697-0.053-0.829-0.158
	c-0.132-0.104-0.198-0.368-0.198-0.79V39.329z M248.004,24.639c0-0.263,0.052-0.474,0.157-0.632c0.105-0.157,0.369-0.236,0.79-0.236
	h1.659c0.421,0,0.685,0.079,0.789,0.236c0.105,0.158,0.211,0.421,0.316,0.79c0.474,1.527,1.118,2.686,1.935,3.476
	s1.987,1.185,3.515,1.185c2.843,0,4.659-1.554,5.449-4.66c0.105-0.368,0.197-0.631,0.276-0.79c0.079-0.157,0.355-0.236,0.829-0.236
	h1.658c0.422,0,0.685,0.079,0.791,0.236c0.104,0.158,0.157,0.369,0.157,0.632c-0.053,1.316-0.315,2.567-0.79,3.752
	c-0.474,1.184-1.105,2.211-1.896,3.08c-0.789,0.869-1.737,1.553-2.843,2.053s-2.343,0.75-3.712,0.75c-1.264,0-2.436-0.25-3.515-0.75
	s-2.026-1.185-2.843-2.053s-1.461-1.896-1.935-3.08C248.319,27.206,248.057,25.955,248.004,24.639L248.004,24.639z"/>
<path fill="#469DCE" d="M66.61,23.114c0.055,0.109,0.108,0.109,0.163,0l2.188-4.878l3.441-7.195
	c0.136-0.217,0.243-0.359,0.332-0.427c0.081-0.067,0.244-0.102,0.494-0.102h1.973c0.358,0,0.534,0.176,0.534,0.529v16.708
	c0,0.379-0.189,0.569-0.575,0.569h-2.101c-0.244,0-0.406-0.041-0.475-0.122c-0.067-0.081-0.102-0.217-0.102-0.406v-10
	c0-0.271-0.034-0.366-0.102-0.285s-0.128,0.163-0.183,0.244l-1.627,3.416l-2.601,5.122c-0.055,0.108-0.122,0.23-0.204,0.366
	c-0.081,0.135-0.243,0.203-0.487,0.203h-1.464c-0.298,0-0.527-0.176-0.69-0.528l-2.276-4.635l-1.789-3.902
	c-0.055-0.135-0.108-0.224-0.163-0.264c-0.054-0.041-0.081,0.047-0.081,0.264v9.96c0,0.216-0.034,0.366-0.102,0.447
	c-0.068,0.081-0.21,0.122-0.427,0.122h-2.032c-0.407,0-0.609-0.176-0.609-0.528V11.081c0-0.136,0.04-0.264,0.121-0.386
	c0.082-0.122,0.23-0.183,0.447-0.183h1.83c0.325,0,0.527,0.054,0.609,0.163c0.081,0.108,0.162,0.244,0.243,0.407
	c0.543,1.057,1.146,2.262,1.796,3.617s1.294,2.697,1.918,4.025c0.379,0.758,0.73,1.531,1.056,2.317
	C66.001,21.827,66.313,22.518,66.61,23.114L66.61,23.114z M94.192,21.691c0,2.196-0.644,3.889-1.932,5.082
	c-1.286,1.192-3.028,1.789-5.223,1.789c-2.25,0-4.005-0.589-5.265-1.768c-1.261-1.179-1.891-2.866-1.891-5.061v-4.675
	c0-2.087,0.61-3.747,1.829-4.98c1.22-1.232,2.981-1.85,5.285-1.85s4.079,0.596,5.325,1.789c1.247,1.192,1.87,2.873,1.87,5.041
	V21.691L94.192,21.691z M90.94,17.029c0-1.172-0.318-2.127-0.955-2.872c-0.637-0.752-1.619-1.125-2.947-1.125
	c-1.192,0-2.142,0.366-2.846,1.104c-0.705,0.731-1.058,1.693-1.058,2.893v4.689c0,1.172,0.299,2.134,0.895,2.893
	c0.597,0.766,1.586,1.145,2.968,1.145s2.379-0.372,2.988-1.124c0.609-0.745,0.928-1.714,0.955-2.914V17.029L90.94,17.029z
	 M111.389,13.357c0.108,0.136,0.149,0.292,0.122,0.468s-0.122,0.318-0.285,0.426l-1.423,1.098c-0.352,0.245-0.663,0.163-0.936-0.244
	c-0.46-0.677-1.022-1.186-1.687-1.524c-0.663-0.338-1.375-0.508-2.135-0.508c-1.164,0-2.093,0.359-2.784,1.084
	c-0.69,0.718-1.036,1.646-1.036,2.792v5.054c0,1.118,0.359,2.019,1.077,2.717c0.718,0.691,1.673,1.036,2.866,1.036
	c1.057,0,1.897-0.23,2.521-0.691c0.623-0.46,1.179-1.002,1.666-1.625c0.136-0.163,0.339-0.149,0.609,0.041l1.342,0.976
	c0.271,0.163,0.42,0.318,0.447,0.467c0.027,0.149-0.014,0.292-0.122,0.427c-0.813,1.206-1.781,2.039-2.906,2.506
	c-1.124,0.467-2.297,0.705-3.517,0.705c-2.195,0-3.949-0.596-5.264-1.789c-1.315-1.192-1.972-2.832-1.972-4.918v-4.675
	c0-1.084,0.183-2.06,0.549-2.927c0.365-0.867,0.867-1.591,1.503-2.175c0.638-0.583,1.39-1.03,2.257-1.341s1.815-0.467,2.846-0.467
	C107.757,10.295,109.844,11.325,111.389,13.357L111.389,13.357z M129.316,27.626c0,0.461-0.19,0.691-0.57,0.691h-2.154
	c-0.38,0-0.569-0.189-0.569-0.569l-0.202-3.781c-0.027-0.515-0.103-1.01-0.225-1.484c-0.121-0.474-0.325-0.894-0.609-1.26
	c-0.285-0.366-0.671-0.65-1.159-0.854c-0.487-0.203-1.097-0.305-1.828-0.305c-1.274,0-2.243,0.38-2.907,1.138
	c-0.664,0.759-0.996,1.667-0.996,2.724v3.983c0,0.271-0.136,0.407-0.406,0.407h-2.48c-0.271,0-0.406-0.122-0.406-0.366V10.837
	c0-0.271,0.122-0.406,0.366-0.406h2.521c0.244,0,0.366,0.122,0.366,0.366v6.382c0,0.298,0.067,0.475,0.203,0.529
	c0.136,0.054,0.271,0.013,0.406-0.122l6.301-6.87c0.136-0.136,0.325-0.204,0.569-0.204h3.009c0.298,0,0.446,0.122,0.446,0.366
	c0,0.054-0.021,0.115-0.061,0.183c-0.041,0.068-0.088,0.129-0.143,0.183l-5.365,5.773c-0.163,0.189-0.109,0.325,0.162,0.406
	c0.271,0.027,0.521,0.055,0.752,0.082c0.23,0.027,0.454,0.068,0.671,0.123c0.759,0.189,1.396,0.48,1.91,0.874
	c0.516,0.393,0.929,0.867,1.24,1.423s0.542,1.172,0.69,1.85c0.149,0.678,0.251,1.396,0.306,2.155L129.316,27.626L129.316,27.626z
	 M146.674,21.691c0,2.196-0.644,3.889-1.932,5.082c-1.287,1.192-3.028,1.789-5.224,1.789c-2.249,0-4.004-0.589-5.264-1.768
	c-1.261-1.179-1.891-2.866-1.891-5.061v-4.675c0-2.087,0.61-3.747,1.829-4.98c1.22-1.232,2.981-1.85,5.285-1.85
	s4.078,0.596,5.325,1.789c1.246,1.192,1.87,2.873,1.87,5.041V21.691z M143.422,17.029c0-1.172-0.318-2.127-0.955-2.872
	c-0.638-0.752-1.62-1.125-2.948-1.125c-1.192,0-2.141,0.366-2.846,1.104c-0.704,0.731-1.057,1.693-1.057,2.893v4.689
	c0,1.172,0.298,2.134,0.895,2.893c0.597,0.766,1.586,1.145,2.968,1.145s2.378-0.372,2.988-1.124
	c0.609-0.745,0.928-1.714,0.955-2.914V17.029L143.422,17.029z M164.845,23.06c0,1.606-0.528,2.879-1.585,3.835
	c-1.057,0.948-2.521,1.423-4.39,1.423h-7.399c-0.406,0-0.609-0.176-0.609-0.528V11.041c0-0.136,0.033-0.258,0.102-0.366
	c0.067-0.108,0.224-0.163,0.467-0.163h7.033c1.843,0,3.279,0.427,4.309,1.281c1.03,0.847,1.545,2.046,1.545,3.584
	c0,0.623-0.169,1.26-0.508,1.911c-0.339,0.643-0.819,1.158-1.443,1.538c-0.054,0.027-0.088,0.061-0.102,0.102
	s0.034,0.088,0.143,0.142c0.867,0.38,1.49,0.942,1.87,1.688C164.655,21.508,164.845,22.273,164.845,23.06z M161.715,23.012
	c0-0.725-0.25-1.355-0.745-1.876c-0.501-0.522-1.26-0.786-2.29-0.786h-4.404c-0.108,0-0.162,0.082-0.162,0.244v4.715
	c0,0.135,0.067,0.203,0.203,0.203h4.485c0.921,0,1.633-0.237,2.147-0.705C161.457,24.333,161.715,23.737,161.715,23.012z
	 M161.187,15.491c0-0.67-0.251-1.212-0.745-1.632c-0.502-0.414-1.206-0.624-2.128-0.624h-3.956c-0.136,0-0.21,0.041-0.224,0.122
	c-0.014,0.082-0.021,0.176-0.021,0.278v3.95c0,0.189,0.081,0.284,0.244,0.284h3.997c0.921,0,1.619-0.237,2.106-0.705
	C160.943,16.691,161.187,16.135,161.187,15.491L161.187,15.491z M181.919,13.357c0.108,0.136,0.149,0.292,0.122,0.468
	s-0.122,0.318-0.284,0.426l-1.423,1.098c-0.353,0.245-0.664,0.163-0.936-0.244c-0.461-0.677-1.023-1.186-1.687-1.524
	c-0.664-0.338-1.376-0.508-2.135-0.508c-1.165,0-2.094,0.359-2.784,1.084c-0.691,0.718-1.037,1.646-1.037,2.792v5.054
	c0,1.118,0.359,2.019,1.077,2.717c0.719,0.691,1.674,1.036,2.866,1.036c1.057,0,1.897-0.23,2.521-0.691
	c0.623-0.46,1.179-1.002,1.667-1.625c0.136-0.163,0.338-0.149,0.609,0.041l1.341,0.976c0.271,0.163,0.421,0.318,0.448,0.467
	c0.026,0.149-0.014,0.292-0.123,0.427c-0.813,1.206-1.781,2.039-2.906,2.506c-1.124,0.467-2.297,0.705-3.517,0.705
	c-2.195,0-3.949-0.596-5.264-1.789s-1.972-2.832-1.972-4.918v-4.675c0-1.084,0.183-2.06,0.549-2.927
	c0.366-0.867,0.867-1.591,1.504-2.175c0.637-0.583,1.389-1.03,2.256-1.341s1.816-0.467,2.846-0.467
	C178.287,10.295,180.374,11.325,181.919,13.357z M199.847,27.626c0,0.461-0.19,0.691-0.569,0.691h-2.155
	c-0.379,0-0.568-0.189-0.568-0.569l-0.203-3.781c-0.027-0.515-0.103-1.01-0.224-1.484c-0.122-0.474-0.325-0.894-0.61-1.26
	c-0.285-0.366-0.671-0.65-1.158-0.854c-0.488-0.203-1.098-0.305-1.829-0.305c-1.274,0-2.243,0.38-2.907,1.138
	c-0.664,0.759-0.996,1.667-0.996,2.724v3.983c0,0.271-0.136,0.407-0.406,0.407h-2.479c-0.271,0-0.407-0.122-0.407-0.366V10.837
	c0-0.271,0.122-0.406,0.366-0.406h2.521c0.244,0,0.366,0.122,0.366,0.366v6.382c0,0.298,0.067,0.475,0.203,0.529
	c0.136,0.054,0.271,0.013,0.406-0.122l6.301-6.87c0.136-0.136,0.325-0.204,0.569-0.204h3.009c0.298,0,0.446,0.122,0.446,0.366
	c0,0.054-0.02,0.115-0.061,0.183s-0.088,0.129-0.143,0.183l-5.365,5.773c-0.163,0.189-0.108,0.325,0.162,0.406
	c0.271,0.027,0.521,0.055,0.752,0.082c0.23,0.027,0.454,0.068,0.671,0.123c0.759,0.189,1.396,0.48,1.91,0.874
	c0.516,0.393,0.929,0.867,1.24,1.423s0.542,1.172,0.691,1.85c0.149,0.678,0.25,1.396,0.305,2.155L199.847,27.626L199.847,27.626z
	 M203.18,10.918c0-0.271,0.176-0.407,0.528-0.407h2.195c0.217,0,0.345,0.041,0.386,0.122c0.041,0.082,0.061,0.189,0.061,0.325
	v11.626c0,0.326,0.082,0.38,0.245,0.163l2.194-3.618l5-8.009c0.136-0.216,0.265-0.372,0.386-0.467
	c0.123-0.095,0.333-0.143,0.631-0.143h1.829c0.217,0,0.359,0.041,0.427,0.122c0.068,0.082,0.102,0.189,0.102,0.325V27.87
	c0,0.298-0.148,0.447-0.446,0.447h-2.317c-0.189,0-0.318-0.027-0.387-0.082c-0.067-0.054-0.101-0.189-0.101-0.407V16.081
	c0-0.135-0.021-0.196-0.062-0.183c-0.041,0.013-0.088,0.047-0.143,0.101l-2.073,3.456l-5.203,8.374
	c-0.162,0.299-0.298,0.455-0.407,0.468c-0.107,0.014-0.229,0.02-0.365,0.02h-1.951c-0.217,0-0.359-0.027-0.427-0.082
	c-0.068-0.054-0.102-0.189-0.102-0.407V10.918L203.18,10.918z M221.636,10.918c0-0.271,0.176-0.407,0.528-0.407h2.195
	c0.216,0,0.345,0.041,0.386,0.122c0.041,0.082,0.061,0.189,0.061,0.325v11.626c0,0.326,0.082,0.38,0.244,0.163l2.195-3.618l5-8.009
	c0.136-0.216,0.265-0.372,0.387-0.467s0.332-0.143,0.63-0.143h1.829c0.217,0,0.359,0.041,0.427,0.122
	c0.068,0.082,0.102,0.189,0.102,0.325V27.87c0,0.298-0.148,0.447-0.446,0.447h-2.317c-0.19,0-0.318-0.027-0.387-0.082
	c-0.067-0.054-0.102-0.189-0.102-0.407V16.081c0-0.135-0.021-0.196-0.061-0.183c-0.041,0.013-0.089,0.047-0.143,0.101l-2.073,3.456
	l-5.203,8.374c-0.163,0.299-0.299,0.455-0.407,0.468c-0.107,0.014-0.229,0.02-0.366,0.02h-1.95c-0.217,0-0.359-0.027-0.427-0.082
	c-0.068-0.054-0.102-0.189-0.102-0.407V10.918L221.636,10.918z M223.912,3.357c0-0.136,0.026-0.244,0.081-0.325
	s0.189-0.123,0.406-0.123h0.854c0.218,0,0.353,0.041,0.407,0.123c0.054,0.082,0.108,0.216,0.162,0.407
	c0.244,0.785,0.576,1.382,0.996,1.788c0.42,0.407,1.023,0.61,1.809,0.61c1.464,0,2.399-0.8,2.805-2.398
	c0.055-0.19,0.103-0.325,0.143-0.407c0.041-0.082,0.183-0.123,0.428-0.123h0.854c0.217,0,0.352,0.041,0.406,0.123
	s0.081,0.189,0.081,0.325c-0.026,0.678-0.163,1.321-0.406,1.931c-0.244,0.609-0.569,1.138-0.976,1.585
	c-0.406,0.447-0.895,0.8-1.464,1.057c-0.568,0.257-1.205,0.387-1.91,0.387c-0.65,0-1.254-0.129-1.81-0.387
	c-0.555-0.257-1.043-0.609-1.463-1.057c-0.42-0.447-0.753-0.976-0.996-1.585C224.074,4.679,223.938,4.035,223.912,3.357z"/>
<path fill="#469DCE" d="M181.986,85.669c0.107,0.135,0.147,0.291,0.121,0.466c-0.027,0.176-0.121,0.317-0.284,0.426l-1.417,1.093
	c-0.351,0.243-0.661,0.162-0.931-0.242c-0.46-0.676-1.02-1.182-1.681-1.52c-0.661-0.337-1.37-0.506-2.126-0.506
	c-1.161,0-2.085,0.357-2.774,1.08c-0.688,0.715-1.031,1.641-1.031,2.78v5.034c0,1.114,0.357,2.012,1.072,2.707
	c0.716,0.688,1.667,1.032,2.854,1.032c1.054,0,1.89-0.229,2.511-0.688s1.175-0.998,1.66-1.619c0.135-0.162,0.338-0.148,0.607,0.04
	l1.337,0.972c0.27,0.162,0.418,0.317,0.444,0.466c0.027,0.147-0.013,0.29-0.121,0.425c-0.81,1.202-1.774,2.031-2.895,2.498
	c-1.121,0.465-2.288,0.701-3.503,0.701c-2.187,0-3.935-0.594-5.244-1.781c-1.309-1.188-1.964-2.821-1.964-4.9v-4.656
	c0-1.08,0.183-2.051,0.547-2.915s0.864-1.586,1.498-2.167c0.634-0.58,1.384-1.025,2.248-1.336c0.863-0.311,1.808-0.465,2.834-0.465
	C178.368,82.62,180.447,83.646,181.986,85.669L181.986,85.669z M199.194,91.46c0,0.297-0.088,0.533-0.263,0.709
	c-0.176,0.175-0.357,0.263-0.547,0.263h-9.435c-0.216,0-0.392,0.067-0.526,0.202c-0.135,0.136-0.202,0.317-0.202,0.533v0.776
	c0,0.54,0.067,1.066,0.202,1.565c0.135,0.506,0.357,0.938,0.668,1.31c0.311,0.364,0.715,0.655,1.215,0.877
	c0.5,0.216,1.1,0.324,1.802,0.324c0.81,0,1.545-0.188,2.207-0.567c0.661-0.377,1.222-0.877,1.681-1.498
	c0.216-0.297,0.485-0.337,0.81-0.121l1.417,0.972c0.324,0.216,0.433,0.433,0.324,0.647c-0.648,1.175-1.539,2.031-2.672,2.564
	c-1.134,0.533-2.362,0.797-3.686,0.797c-2.187,0-3.935-0.6-5.243-1.802c-1.31-1.201-1.964-2.813-1.964-4.839v-4.616
	c0-1.026,0.175-1.97,0.526-2.835c0.351-0.863,0.837-1.605,1.471-2.227c0.635-0.621,1.384-1.1,2.24-1.438
	c0.864-0.338,1.815-0.506,2.868-0.506c1.08,0,2.052,0.168,2.93,0.506c0.871,0.338,1.619,0.816,2.24,1.438s1.094,1.363,1.431,2.227
	c0.337,0.865,0.506,1.809,0.506,2.835V91.46L199.194,91.46z M192.108,85.347c-1.133,0-2.052,0.363-2.753,1.092
	c-0.702,0.729-1.054,1.606-1.054,2.633v0.283c0,0.107,0.041,0.216,0.122,0.324c0.081,0.107,0.243,0.162,0.485,0.162h6.642
	c0.27,0,0.404-0.148,0.404-0.445v-0.365c0-1.025-0.323-1.896-0.972-2.611S193.378,85.347,192.108,85.347L192.108,85.347z
	 M217.294,94.052c0,0.944-0.161,1.828-0.485,2.651c-0.324,0.824-0.77,1.546-1.35,2.167s-1.262,1.107-2.059,1.457
	c-0.79,0.352-1.66,0.527-2.598,0.527c-1.053,0-1.863-0.129-2.443-0.385c-0.581-0.257-1.047-0.547-1.391-0.871
	c-0.216-0.189-0.385-0.236-0.506-0.142s-0.182,0.224-0.182,0.385v7.653c0,0.27-0.122,0.404-0.365,0.404h-2.511
	c-0.242,0-0.364-0.121-0.364-0.364V83.201c0-0.244,0.122-0.365,0.364-0.365h2.228c0.27,0,0.405,0.121,0.405,0.365v0.85
	c0,0.162,0.066,0.236,0.202,0.223c0.135-0.014,0.283-0.102,0.445-0.264c0.345-0.297,0.864-0.6,1.552-0.911
	c0.682-0.31,1.539-0.466,2.558-0.466c1.938,0,3.511,0.574,4.704,1.721c1.195,1.148,1.795,2.788,1.795,4.921V94.052L217.294,94.052z
	 M214.055,89.341c0-1.127-0.33-2.065-0.992-2.808c-0.661-0.735-1.626-1.106-2.895-1.106c-1.134,0-2.065,0.371-2.794,1.106
	c-0.729,0.742-1.093,1.667-1.093,2.768v4.765c0,1.1,0.357,2.045,1.072,2.828c0.716,0.775,1.653,1.166,2.814,1.166
	c1.188,0,2.132-0.385,2.835-1.146c0.701-0.77,1.052-1.721,1.052-2.848V89.341L214.055,89.341z M235.354,95.333
	c0,1.6-0.526,2.869-1.579,3.82c-1.054,0.945-2.511,1.418-4.374,1.418h-7.369c-0.405,0-0.607-0.176-0.607-0.527V83.362
	c0-0.135,0.033-0.257,0.101-0.364c0.068-0.107,0.224-0.162,0.466-0.162h7.005c1.836,0,3.267,0.426,4.292,1.275
	c1.027,0.844,1.54,2.038,1.54,3.57c0,0.621-0.169,1.256-0.507,1.903c-0.338,0.641-0.816,1.153-1.438,1.532
	c-0.054,0.027-0.087,0.061-0.101,0.101s0.033,0.088,0.142,0.142c0.863,0.379,1.484,0.938,1.862,1.681
	C235.165,93.789,235.354,94.552,235.354,95.333L235.354,95.333z M232.235,95.287c0-0.723-0.249-1.35-0.742-1.869
	c-0.499-0.52-1.255-0.783-2.281-0.783h-4.387c-0.107,0-0.161,0.082-0.161,0.244v4.696c0,0.135,0.067,0.202,0.202,0.202h4.468
	c0.918,0,1.626-0.236,2.14-0.701C231.979,96.603,232.235,96.009,232.235,95.287L232.235,95.287z M231.709,87.796
	c0-0.669-0.249-1.209-0.741-1.627c-0.5-0.412-1.202-0.621-2.119-0.621h-3.942c-0.134,0-0.209,0.041-0.222,0.121
	c-0.014,0.082-0.021,0.176-0.021,0.277v3.934c0,0.189,0.081,0.283,0.242,0.283h3.982c0.918,0,1.612-0.235,2.099-0.701
	C231.467,88.99,231.709,88.437,231.709,87.796L231.709,87.796z M239.403,83.241c0-0.271,0.175-0.405,0.526-0.405h2.187
	c0.216,0,0.344,0.041,0.385,0.121c0.04,0.082,0.061,0.189,0.061,0.324v11.582c0,0.322,0.081,0.377,0.242,0.16l2.188-3.604
	l4.98-7.977c0.135-0.216,0.263-0.371,0.385-0.465c0.121-0.095,0.33-0.143,0.627-0.143h1.822c0.217,0,0.358,0.041,0.426,0.121
	c0.066,0.082,0.101,0.189,0.101,0.324v16.845c0,0.297-0.148,0.446-0.445,0.446h-2.308c-0.189,0-0.317-0.027-0.385-0.082
	c-0.067-0.054-0.102-0.188-0.102-0.404V88.382c0-0.135-0.021-0.195-0.061-0.182c-0.041,0.014-0.088,0.047-0.142,0.102l-2.065,3.441
	l-5.183,8.342c-0.162,0.297-0.297,0.452-0.405,0.465c-0.107,0.014-0.229,0.021-0.364,0.021h-1.943c-0.216,0-0.357-0.027-0.426-0.082
	c-0.067-0.054-0.101-0.188-0.101-0.404V83.241z M270.744,85.669c0.107,0.135,0.148,0.291,0.121,0.466
	c-0.027,0.176-0.121,0.317-0.283,0.426l-1.417,1.093c-0.352,0.243-0.662,0.162-0.932-0.242c-0.459-0.676-1.02-1.182-1.681-1.52
	c-0.661-0.337-1.37-0.506-2.126-0.506c-1.161,0-2.085,0.357-2.773,1.08c-0.688,0.715-1.032,1.641-1.032,2.78v5.034
	c0,1.114,0.357,2.012,1.073,2.707c0.715,0.688,1.666,1.032,2.854,1.032c1.053,0,1.889-0.229,2.51-0.688s1.175-0.998,1.66-1.619
	c0.136-0.162,0.338-0.148,0.607,0.04l1.337,0.972c0.27,0.162,0.418,0.317,0.445,0.466c0.027,0.147-0.014,0.29-0.121,0.425
	c-0.811,1.202-1.775,2.031-2.896,2.498c-1.121,0.465-2.288,0.701-3.503,0.701c-2.187,0-3.934-0.594-5.244-1.781
	c-1.309-1.188-1.963-2.821-1.963-4.9v-4.656c0-1.08,0.182-2.051,0.546-2.915s0.864-1.586,1.499-2.167
	c0.634-0.58,1.383-1.025,2.247-1.336c0.863-0.311,1.809-0.465,2.834-0.465C267.126,82.62,269.205,83.646,270.744,85.669
	L270.744,85.669z"/>
<g>
	<path fill="#4C799D" d="M28.543,78.064c-3.248,0-6.306-0.45-9.091-1.338c-2.892-0.921-5.48-2.316-7.692-4.146
		c-2.298-1.901-4.107-4.285-5.375-7.085C5.135,62.74,4.5,59.567,4.5,56.068V26.395c0-3.39,0.664-6.503,1.972-9.251
		c1.287-2.703,3.059-5.041,5.267-6.946c2.18-1.88,4.756-3.323,7.656-4.29C22.198,4.974,25.241,4.5,28.441,4.5
		c3.112,0,6.103,0.45,8.886,1.337c2.88,0.919,5.474,2.304,7.71,4.119c2.331,1.892,4.176,4.267,5.485,7.058
		c1.301,2.777,1.96,5.933,1.96,9.38v29.673c0,3.438-0.638,6.566-1.896,9.3c-1.256,2.729-3.02,5.083-5.242,6.999
		c-2.177,1.879-4.753,3.323-7.655,4.29C34.888,77.59,31.81,78.064,28.543,78.064z M28.543,20.969c-2.134,0-3.713,0.532-4.827,1.626
		c-1.122,1.102-1.622,2.337-1.622,4.003v29.264c0,2.456,0.854,3.594,1.496,4.235c1.008,1.008,2.594,1.497,4.851,1.497
		c2.219,0,3.824-0.508,4.907-1.553c0.662-0.639,1.542-1.766,1.542-4.18V26.599c0-1.721-0.491-2.963-1.593-4.027
		C32.18,21.493,30.625,20.969,28.543,20.969z"/>
	<path fill="#FFFFFF" d="M28.441,9c2.66,0,5.167,0.375,7.52,1.125c2.354,0.751,4.435,1.859,6.242,3.326
		c1.807,1.466,3.223,3.292,4.246,5.474c1.022,2.183,1.534,4.673,1.534,7.47v29.673c0,2.796-0.494,5.269-1.483,7.418
		c-0.989,2.148-2.353,3.973-4.093,5.474c-1.739,1.501-3.785,2.644-6.139,3.428s-4.929,1.177-7.726,1.177s-5.371-0.375-7.725-1.125
		s-4.417-1.859-6.19-3.326s-3.155-3.291-4.144-5.474C9.494,61.457,9,58.932,9,56.068V26.395c0-2.729,0.512-5.167,1.535-7.316
		c1.022-2.149,2.404-3.974,4.144-5.475c1.74-1.5,3.786-2.643,6.14-3.428C23.172,9.392,25.713,9,28.441,9 M28.441,66.095
		c3.41,0,6.088-0.939,8.031-2.814c1.944-1.875,2.917-4.349,2.917-7.418V26.599c0-2.933-0.989-5.354-2.968-7.265
		c-1.978-1.91-4.604-2.865-7.879-2.865c-3.342,0-6.002,0.972-7.98,2.916c-1.979,1.944-2.968,4.349-2.968,7.213v29.264
		c0,3.069,0.938,5.543,2.814,7.418C22.284,65.156,24.962,66.095,28.441,66.095 M28.441,0c-3.685,0-7.207,0.551-10.468,1.638
		c-3.461,1.154-6.546,2.887-9.171,5.15c-2.687,2.318-4.837,5.151-6.394,8.424C0.811,18.566,0,22.33,0,26.395v29.673
		c0,4.145,0.77,7.942,2.289,11.29c1.55,3.423,3.772,6.349,6.603,8.69c2.658,2.197,5.751,3.868,9.194,4.966
		c3.227,1.028,6.745,1.55,10.457,1.55c3.751,0,7.308-0.551,10.571-1.639c3.462-1.153,6.548-2.887,9.173-5.152
		c2.711-2.338,4.86-5.206,6.388-8.522c1.532-3.329,2.309-7.091,2.309-11.183V26.395c0-4.112-0.802-7.91-2.384-11.287
		c-1.602-3.415-3.863-6.322-6.725-8.645c-2.676-2.171-5.764-3.823-9.179-4.912C35.468,0.521,32.019,0,28.441,0L28.441,0z
		 M26.741,56.875c-0.101-0.17-0.146-0.615-0.146-1.012V26.599c0-0.523,0.075-0.597,0.276-0.794c0.317-0.311,1.36-0.335,1.672-0.335
		c0.384,0,1.311,0.033,1.627,0.339c0.137,0.132,0.22,0.212,0.22,0.791v29.264c0,0.574-0.091,0.845-0.115,0.886
		c0,0-0.012,0.018-0.049,0.054c-0.062,0.06-0.567,0.293-1.784,0.293C27.384,57.095,26.887,56.933,26.741,56.875L26.741,56.875z"/>
</g>
</svg>
