<?xml version="1.0" encoding="utf-8"?>
<!-- Generator: Adobe Illustrator 15.0.0, SVG Export Plug-In  -->
<!DOCTYPE svg PUBLIC "-//W3C//DTD SVG 1.1//EN" "http://www.w3.org/Graphics/SVG/1.1/DTD/svg11.dtd" [
	<!ENTITY ns_flows "http://ns.adobe.com/Flows/1.0/">
]>
<svg version="1.1"
	 xmlns="http://www.w3.org/2000/svg" xmlns:xlink="http://www.w3.org/1999/xlink" xmlns:a="http://ns.adobe.com/AdobeSVGViewerExtensions/3.0/"
	 x="0px" y="0px" width="206px" height="100px" viewBox="-1 -1 206 100" enable-background="new -1 -1 206 100"
	 xml:space="preserve">
<defs>
</defs>
<polygon fill="#6786B6" points="18.045,24.935 18.045,8.342 11.184,24.935 10.156,24.935 3.326,8.342 3.326,24.935 0.816,24.935 
	0.816,4.775 4.413,4.775 10.67,19.948 16.956,4.775 20.554,4.775 20.554,24.935 "/>
<path fill="#6786B6" d="M24.271,14.871c0-5.954,4.021-10.428,10.006-10.428c5.953,0,10.004,4.474,10.004,10.428
	c0,5.953-4.051,10.427-10.004,10.427C28.291,25.298,24.271,20.824,24.271,14.871 M41.679,14.871c0-4.716-2.899-8.191-7.402-8.191
	c-4.536,0-7.406,3.475-7.406,8.191c0,4.685,2.87,8.19,7.406,8.19C38.779,23.061,41.679,19.556,41.679,14.871"/>
<path fill="#6786B6" d="M47.351,14.871c0-6.197,4.564-10.428,10.368-10.428c3.566,0,6.047,1.723,7.646,3.99l-2.113,1.179
	c-1.151-1.694-3.234-2.932-5.533-2.932c-4.412,0-7.767,3.385-7.767,8.191c0,4.775,3.354,8.19,7.767,8.19
	c2.299,0,4.382-1.209,5.533-2.932l2.146,1.179c-1.693,2.297-4.112,3.99-7.679,3.99C51.915,25.298,47.351,21.065,47.351,14.871"/>
<polygon fill="#6786B6" points="80.68,24.935 73.029,15.868 71.008,18.165 71.008,24.935 68.498,24.935 68.498,4.775 71.008,4.775 
	71.008,15.204 79.922,4.775 83.065,4.775 74.661,14.355 83.79,24.935 "/>
<path fill="#6786B6" d="M84.053,14.871c0-5.954,4.021-10.428,10.007-10.428c5.952,0,10.003,4.474,10.003,10.428
	c0,5.953-4.051,10.427-10.003,10.427C88.074,25.298,84.053,20.824,84.053,14.871 M101.462,14.871c0-4.716-2.9-8.191-7.402-8.191
	c-4.536,0-7.406,3.475-7.406,8.191c0,4.685,2.87,8.19,7.406,8.19C98.562,23.061,101.462,19.556,101.462,14.871"/>
<path fill="#6786B6" d="M107.734,24.935V4.775h8.979c3.504,0,5.65,2.115,5.65,5.138c0,2.539-1.694,4.231-3.537,4.624
	c2.145,0.333,3.931,2.539,3.931,4.956c0,3.234-2.146,5.441-5.832,5.441H107.734z M119.767,10.275c0-1.813-1.209-3.263-3.479-3.263
	h-6.044v6.497h6.044C118.558,13.51,119.767,12.119,119.767,10.275 M120.156,19.223c0-1.844-1.269-3.476-3.744-3.476h-6.168v6.952
	h6.168C118.769,22.699,120.156,21.369,120.156,19.223"/>
<path fill="#6786B6" d="M125.599,14.871c0-6.197,4.564-10.428,10.368-10.428c3.566,0,6.043,1.723,7.646,3.99l-2.118,1.179
	c-1.146-1.694-3.233-2.932-5.528-2.932c-4.415,0-7.771,3.385-7.771,8.191c0,4.775,3.355,8.19,7.771,8.19
	c2.295,0,4.382-1.209,5.528-2.932l2.146,1.179c-1.693,2.297-4.108,3.99-7.675,3.99C130.163,25.298,125.599,21.065,125.599,14.871"/>
<polygon fill="#6786B6" points="158.924,24.935 151.277,15.868 149.252,18.165 149.252,24.935 146.742,24.935 146.742,4.775 
	149.252,4.775 149.252,15.204 158.17,4.775 161.31,4.775 152.909,14.355 162.038,24.935 "/>
<polygon fill="#6786B6" points="164.971,24.935 164.971,4.775 167.48,4.775 167.48,20.522 179.087,4.775 181.655,4.775 
	181.655,24.935 179.148,24.935 179.148,8.855 167.39,24.935 "/>
<path fill="#6786B6" d="M186.311,24.935V4.775h2.51v15.748l11.606-15.748h2.568v20.16h-2.507V8.856l-11.759,16.079H186.311z
	 M194.652,3.627c-2.146,0-4.08-1.028-5.318-2.66L190.452,0c0.97,1.33,2.419,2.176,4.2,2.176c1.756,0,3.235-0.816,4.171-2.176
	l1.119,0.967C198.732,2.599,196.831,3.627,194.652,3.627"/>
<path fill="#6786B6" d="M0,51.146c0-5.954,4.02-10.427,10.005-10.427c5.955,0,10.003,4.473,10.003,10.427
	S15.96,61.573,10.005,61.573C4.02,61.573,0,57.1,0,51.146 M17.409,51.146c0-4.715-2.901-8.19-7.404-8.19
	c-4.534,0-7.406,3.475-7.406,8.19c0,4.685,2.872,8.191,7.406,8.191C14.508,59.337,17.409,55.83,17.409,51.146"/>
<polygon fill="#6786B6" points="35.865,61.209 28.216,52.143 26.192,54.44 26.192,61.209 23.683,61.209 23.683,41.051 
	26.192,41.051 26.192,51.48 35.107,41.051 38.251,41.051 29.847,50.63 38.977,61.209 "/>
<path fill="#6786B6" d="M39.238,51.146c0-5.954,4.021-10.427,10.007-10.427c5.952,0,10.003,4.473,10.003,10.427
	s-4.051,10.428-10.003,10.428C43.26,61.573,39.238,57.1,39.238,51.146 M56.647,51.146c0-4.715-2.899-8.19-7.402-8.19
	c-4.536,0-7.406,3.475-7.406,8.19c0,4.685,2.87,8.191,7.406,8.191C53.748,59.337,56.647,55.83,56.647,51.146"/>
<polygon fill="#6786B6" points="77.215,61.209 77.215,51.962 65.431,51.962 65.431,61.209 62.921,61.209 62.921,41.051 
	65.431,41.051 65.431,49.725 77.215,49.725 77.215,41.051 79.725,41.051 79.725,61.209 "/>
<polygon fill="#6786B6" points="98.675,61.209 98.675,51.962 86.891,51.962 86.891,61.209 84.38,61.209 84.38,41.051 86.891,41.051 
	86.891,49.725 98.675,49.725 98.675,41.051 101.185,41.051 101.185,61.209 "/>
<path fill="#6786B6" d="M108.351,41.051v8.01h5.588c3.992,0,6.32,2.779,6.32,6.074s-2.27,6.074-6.32,6.074h-8.098V41.051H108.351z
	 M108.351,51.297v7.676h5.285c2.39,0,4.021-1.57,4.021-3.838s-1.632-3.838-4.021-3.838H108.351z M122.434,41.051h2.51v20.158h-2.51
	V41.051z"/>
<path fill="#6786B6" d="M129.613,61.209V41.05h2.51v15.749l11.605-15.749h2.569v20.159h-2.51V45.131l-11.756,16.078H129.613z
	 M137.956,39.902c-2.146,0-4.08-1.028-5.319-2.66l1.118-0.967c0.966,1.33,2.416,2.176,4.201,2.176c1.752,0,3.234-0.816,4.171-2.176
	l1.118,0.967C142.035,38.875,140.13,39.902,137.956,39.902"/>
<path fill="#6786B6" d="M0,87.423c0-6.196,4.564-10.43,10.368-10.43c3.567,0,6.045,1.724,7.647,3.991l-2.116,1.179
	c-1.149-1.694-3.234-2.933-5.531-2.933c-4.414,0-7.768,3.386-7.768,8.192c0,4.774,3.354,8.189,7.768,8.189
	c2.297,0,4.382-1.211,5.531-2.933l2.146,1.18c-1.693,2.297-4.11,3.989-7.677,3.989C4.564,97.849,0,93.617,0,87.423"/>
<polygon fill="#6786B6" points="21.146,97.486 21.146,77.327 34.354,77.327 34.354,79.563 23.655,79.563 23.655,86.061 
	34.142,86.061 34.142,88.297 23.655,88.297 23.655,95.25 34.354,95.25 34.354,97.486 "/>
<path fill="#6786B6" d="M38.087,97.486V77.327h8.099c4.051,0,6.32,2.781,6.32,6.074c0,3.295-2.328,6.076-6.32,6.076h-5.589v8.009
	H38.087z M49.904,83.401c0-2.266-1.632-3.838-4.021-3.838h-5.287v7.678h5.287C48.272,87.241,49.904,85.669,49.904,83.401"/>
<path fill="#6786B6" d="M55.649,97.486V77.327h8.976c3.509,0,5.654,2.114,5.654,5.138c0,2.539-1.694,4.231-3.537,4.623
	c2.146,0.335,3.927,2.539,3.927,4.958c0,3.234-2.146,5.44-5.832,5.44H55.649z M67.678,82.827c0-1.812-1.209-3.264-3.475-3.264
	h-6.044v6.497h6.044C66.469,86.061,67.678,84.673,67.678,82.827 M68.071,91.774c0-1.845-1.271-3.478-3.748-3.478h-6.164v6.953h6.164
	C66.68,95.25,68.071,93.921,68.071,91.774"/>
<polygon fill="#6786B6" points="74.577,97.486 74.577,77.327 77.088,77.327 77.088,93.073 88.693,77.327 91.262,77.327 
	91.262,97.486 88.752,97.486 88.752,81.407 76.996,97.486 "/>
<path fill="#6786B6" d="M94.901,87.423c0-6.196,4.563-10.43,10.367-10.43c3.566,0,6.047,1.724,7.646,3.991l-2.113,1.179
	c-1.151-1.694-3.234-2.933-5.533-2.933c-4.412,0-7.767,3.386-7.767,8.192c0,4.774,3.354,8.189,7.767,8.189
	c2.299,0,4.382-1.211,5.533-2.933l2.146,1.18c-1.693,2.297-4.112,3.989-7.679,3.989C99.465,97.849,94.901,93.617,94.901,87.423"/>
</svg>
